<svg id="Capa_1" enable-background="new 0 0 497 497" height="512" viewBox="0 0 497 497" width="512" xmlns="http://www.w3.org/2000/svg"><g><path d="m385.984 144.047v263.953c0 22.091-17.909 40-40 40h-275c-22.091 0-40-17.909-40-40v-368c0-22.091 17.909-40 40-40h171.197c4.547 0 8.987 1.032 13.007 2.966 3.025 1.455 126.621 125.409 128.09 128.629 1.767 3.873 2.706 8.114 2.706 12.452z" fill="#f9f8f9"/><path d="m385.984 144.05v17.59h-104.32c-31.45 0-57.04-25.62-57.04-57.1v-104.54h17.56c4.344 0 8.593.944 12.472 2.719 3.228 1.477 127.222 125.755 128.696 129.037 1.719 3.829 2.632 8.014 2.632 12.294z" fill="#e3e0e4"/><path d="m100.984 448h-30c-22.09 0-40-17.91-40-40v-368c0-22.09 17.91-40 40-40h30c-22.09 0-40 17.91-40 40v368c0 22.09 17.91 40 40 40z" fill="#e3e0e4"/><g fill="#a29aa5"><path d="m212.092 150h-123.7c-4.142 0-7.5-3.358-7.5-7.5s3.358-7.5 7.5-7.5h123.7c4.142 0 7.5 3.358 7.5 7.5s-3.358 7.5-7.5 7.5z"/><path d="m212.092 330h-123.7c-4.142 0-7.5-3.358-7.5-7.5s3.358-7.5 7.5-7.5h123.7c4.142 0 7.5 3.358 7.5 7.5s-3.358 7.5-7.5 7.5z"/><path d="m310.392 210h-224c-4.142 0-7.5-3.358-7.5-7.5s3.358-7.5 7.5-7.5h224c4.142 0 7.5 3.358 7.5 7.5s-3.358 7.5-7.5 7.5z"/><path d="m383.294 131.64h-101.63c-14.93 0-27.04-12.14-27.04-27.1v-101.82c3.24 1.46 6.23 3.52 8.79 6.09l113.81 114.05c2.55 2.56 4.61 5.54 6.07 8.78z"/><path d="m397.785 406 61.712 55.872c8.414 8.272 8.724 21.458.69 29.394-8.023 7.925-21.311 7.595-29.642-.736l-61.529-56.009z"/></g><path d="m426.434 431.94c-7.7 11.25-17.36 21.06-28.49 28.92l-28.93-26.34 28.77-28.52z" fill="#766d78"/><path d="m426.434 431.94c-7.7 11.25-17.36 21.06-28.49 28.92l-28.93-26.34 28.77-28.52z" fill="#766d78"/><circle cx="332.368" cy="367.8" fill="#a29aa5" r="88.884"/><path d="m276.08 368.231c0-6.572 1.123-12.882 3.189-18.747 7.729-21.951 28.649-37.685 53.244-37.685 31.167 0 56.432 25.266 56.432 56.432s-25.266 56.432-56.432 56.432-56.433-25.265-56.433-56.432z" fill="#f9f8f9"/><path d="m381.144 396.86c-9.81 16.64-27.92 27.8-48.63 27.8-31.17 0-56.43-25.26-56.43-56.43 0-6.57 1.12-12.88 3.18-18.75 4.44-12.62 13.24-23.18 24.6-29.88-1.84 3.11-3.38 6.42-4.6 9.88-2.06 5.87-3.18 12.18-3.18 18.75 0 31.17 25.26 56.43 56.43 56.43 10.45 0 20.24-2.84 28.63-7.8z" fill="#e3e0e4"/><path d="m260.392 270h-174c-4.142 0-7.5-3.357-7.5-7.5s3.358-7.5 7.5-7.5h174c4.142 0 7.5 3.357 7.5 7.5s-3.358 7.5-7.5 7.5z" fill="#a29aa5"/></g></svg>